<svg width="3540" height="2655" version="1.1" viewBox="0 0 936.6 702.5" xmlns="http://www.w3.org/2000/svg" xmlns:xlink="http://www.w3.org/1999/xlink">
 <style/>
 <defs>
  <linearGradient id="a">
   <stop stop-color="#fff" stop-opacity=".9995" offset="0"/>
   <stop stop-color="#fff" stop-opacity=".8448" offset=".3"/>
   <stop offset="1"/>
  </linearGradient>
  <radialGradient id="e" cx="469.4" cy="375.1" r="304.1" gradientTransform="matrix(1 0 0 .9834 1.27 6.241)" gradientUnits="userSpaceOnUse">
   <stop stop-color="#fddabd" offset="0"/>
   <stop stop-color="#f18730" offset="1"/>
  </radialGradient>
  <radialGradient id="d" cx="569.7" cy="411.1" r="4.82" gradientTransform="matrix(1.542 0 0 1.807 -309.1 -331.7)" gradientUnits="userSpaceOnUse" xlink:href="#a"/>
  <radialGradient id="c" cx="569.7" cy="411.1" r="4.82" gradientTransform="matrix(1.542 0 0 1.807 -508.4 -331.3)" gradientUnits="userSpaceOnUse" xlink:href="#a"/>
  <radialGradient id="b" cx="1778" cy="1683" r="1223" gradientTransform="matrix(.9146 -5.368e-8 0 .7687 150 -143)" gradientUnits="userSpaceOnUse">
   <stop stop-color="#e57519" offset="0"/>
   <stop stop-color="#b9430a" offset=".3058"/>
   <stop stop-color="#861300" offset=".9044"/>
   <stop stop-color="#841200" offset="1"/>
  </radialGradient>
  <radialGradient id="g" cx="188.5" cy="317.9" r="94.88" gradientTransform="matrix(-1.034 .5214 -.9158 -1.816 666.2 767.8)" gradientUnits="userSpaceOnUse">
   <stop stop-color="#fccda1" stop-opacity=".7308" offset="0"/>
   <stop stop-color="#f28c38" offset="1"/>
  </radialGradient>
  <radialGradient id="f" cx="161.4" cy="224.2" r="136.6" gradientTransform="matrix(.7447 -.03514 .04242 .8989 -6.471 143.3)" gradientUnits="userSpaceOnUse">
   <stop stop-color="#fce7c0" offset="0"/>
   <stop stop-color="#f8b178" offset="1"/>
  </radialGradient>
 </defs>
 <g>
  <use transform="matrix(-1 0 0 1 936.4 0)" width="100%" height="100%" xlink:href="#i"/>
  <g fill="none" stroke="#000" stroke-linecap="round" stroke-linejoin="round" stroke-width="10">
   <path d="m814.6 460.9c6.239-6.493 12.1-20.05 11.86-34.58-0.4809-28.64-19.48-30.13-31.67-33.63" opacity=".9" stop-color="#000000"/>
   <path d="m878.1 409c3.615-17.39-8.213-37.69-23.38-45.45-17.92-9.174-50.98 0.0239-59.73 8.999"/>
  </g>
  <g id="i">
   <path d="m230.7 402.5c-1e-5 93.56 92.17 186.4-6.933 186.4-45.99 0-97.27-12.44-134.3-41.03-19.69-15.18-38.65-34.03-52.12-55.55-14.28-22.81-22.49-48.04-28.81-75.4-9.637-41.7-6.065-92.93 20.09-126.8 17.47-22.64 49.97-34.06 78.57-34.45 24.49-0.3351 50.33 10.77 68.07 27.65 31.75 30.21 55.48 61.1 55.48 119.2z" fill="url(#f)" stroke="#000002" stroke-linecap="round" stroke-linejoin="round" stroke-miterlimit="2.4" stroke-width="9" style="paint-order:normal"/>
   <path d="m211.6 422.4c0 67.39 10.93 149.5-11.86 146.7-14.07-1.694-72.31-17.01-101.4-38.44-25.7-18.91-45.39-46.51-59.04-75.35-9.709-20.52-14.93-43.78-14.81-66.48 0.1554-28.1 1.55-60.24 19.24-82.07 16.53-20.41 45.11-35.32 71.32-33.53 61.37 4.199 96.58 81.77 96.58 149.2z" fill="url(#g)" style="mix-blend-mode:normal;paint-order:normal"/>
  </g>
  <g fill="none" stroke="#000" stroke-linecap="round" stroke-linejoin="round" stroke-width="10">
   <path d="m127.7 473c-6.239-6.493-16.01-23.59-12.87-35.92 3.485-13.68 10.28-24.2 31.62-28.17" opacity=".9" stop-color="#000000"/>
   <path d="m79.15 408.9c-6.095-19.07 3.771-37.84 17.89-46.68 13.57-8.495 32.76-2.644 47.84 4.111"/>
  </g>
 </g>
 <g fill="none" stroke="#000" stroke-linecap="round" stroke-linejoin="round" stroke-width="10.06">
  <path d="m418.7 55.87c-5.101-14.03-11.8-23.29-26.68-25.18"/>
  <path d="m439.6 49.7c-3.168-17.89-6.9-32.15-22.43-33.68"/>
  <path d="m465.7 46.59c-2.414-16-7.149-19.52-12.75-37.31"/>
 </g>
 <g>
  <g fill-rule="evenodd">
   <ellipse cx="470.7" cy="375.1" rx="322.7" ry="321.4" fill="#f8b178"/>
   <path d="m471 53.7c-157.8 0.08159-291.1 109.4-311.5 255.5 0 0 114.7-127.5 311.4-127.5 198.8 0 311.7 127.5 311.7 127.5-20.4-146.1-153.8-255.5-311.6-255.5z" fill="#c68859"/>
   <ellipse cx="470.6" cy="375.1" rx="303.9" ry="298.8" fill="url(#e)"/>
  </g>
  <path transform="scale(.2646)" d="m671.8 1099c186.6-545.9 641.6-811.1 1107-811.1s942 287.1 1101 806.7c0 0-130.3-252.6-482.1-253.8-351.8-1.137-619.2 399.3-619.2 399.3s-354-394.5-620.1-399.4c-266.2-4.955-486.8 258.3-486.8 258.3z" fill="url(#b)" style="mix-blend-mode:normal;paint-order:normal"/>
 </g>
 <path transform="scale(.2646)" d="m2987 1245c-21.48-34.87-215.5-402-591.6-407.9-313.4-4.946-616.2 409-616.2 409s-317.3-402.3-621-403.3c-364.8-1.167-561.2 355.7-584.4 390.7" fill="none" stroke="#000" stroke-linejoin="round" stroke-miterlimit="2.4" stroke-width="42.75" style="mix-blend-mode:multiply;paint-order:normal"/>
 <ellipse cx="470.7" cy="375.1" rx="322.7" ry="321.4" fill="none" stroke="#000" stroke-linecap="round" stroke-linejoin="round" stroke-width="11.31"/>
 <g>
  <g fill-rule="evenodd">
   <ellipse transform="matrix(.9994 .03386 -.033 .9995 0 0)" cx="583" cy="424.5" rx="27.24" ry="47.55"/>
   <ellipse cx="569.7" cy="411.1" rx="7.565" ry="8.861" fill="url(#d)"/>
   <ellipse transform="matrix(.9994 .03386 -.033 .9995 0 0)" cx="382.8" cy="431.7" rx="27.24" ry="47.55"/>
   <ellipse cx="370.4" cy="411.5" rx="7.565" ry="8.861" fill="url(#c)"/>
  </g>
  <path id="h" transform="matrix(.8411 -.2618 -.2254 -.9772 110.7 1208)" d="m355.3 581.4c9.345 0.2209 5.972 10.49-0.2979 12.6-8.784 2.954-17.09-4.687-18.41-13.04-1.85-11.78 7.875-22.02 19.26-23.12 14.21-1.379 26.28 10.36 27.21 24.22 1.095 16.35-12.47 30.09-28.51 30.87-10.38 0.5069-20.51-4.284-26.93-12.4" fill="none" stroke="#000" stroke-linecap="round" stroke-linejoin="round" stroke-width="10.26"/>
  <use transform="translate(382.5 -6.567)" xlink:href="#h"/>
  <g fill="none" stroke="#000" stroke-linecap="round" stroke-linejoin="round">
   <path d="m338.8 555.3c-11.68 11.86-15.91 15.37-22.45 23.75-6.252 8.017-9.508 18.27-9.508 18.27" stroke-width="12.66"/>
   <path d="m603.8 558.9c13.08 8.909 14.75 11.03 21.29 19.42 6.252 8.017 9.508 18.27 9.508 18.27" stroke-width="12.66"/>
   <path d="m619.7 576.8c-39.99 42.69-85.65 67.97-148.1 67.4-54.97-0.5024-99.97-23.9-151-62.74" stop-color="#000000" stroke-width="12.98"/>
  </g>
 </g>
</svg>
